<svg
    xmlns="http://www.w3.org/2000/svg"
    viewBox="0 0 209.555 43"
>
    <path
        fill="#000"
        d="M20.942,42.442,24.711,5.026c.14-1.955.558-2.234,1.256-2.234h.419V.7H20.244V2.792h.419c.838,0,1.256.558,1.117,2.234L19.545,27.364,17.032,5.026c-.279-1.815.14-2.234,1.117-2.234h.14V.7H9.773V2.792h.419c.838,0,.838.279.977,2.234l.7,5.724L9.773,28.9,7.539,5.026c-.279-1.955.14-2.234.977-2.234h.14V.7H0V2.792H.419c.977,0,.977.279,1.117,2.234L5.445,42.442h5.584l2.234-19.266,2.094,19.266ZM56.961,17.87c0-2.653,0-3.49,1.675-3.49,1.117,0,1.117.419,1.117,2.653V39.37c0,.838-.279.977-.7.977h-.279v2.094h8.516V40.347h-.419c-.558,0-.7-.279-.7-1.117V15.776c0-3.909-.838-5.305-4.607-5.305a4.482,4.482,0,0,0-4.747,3.071c-.419-2.094-1.536-3.071-4.468-3.071-2.373,0-3.63.7-4.607,3.071V10.471l-7.4.558v2.094h.279c.419,0,.838.419.838,1.536V39.091c0,.977-.279,1.256-.838,1.256h-.279v2.094h8.237V40.347h-.279c-.419,0-.558-.14-.558-.838V17.87c0-2.653,0-3.49,1.536-3.49,1.117,0,1.117.419,1.117,2.653V39.37c0,.838-.279.977-.7.977h-.419v2.094h8.377V40.347h-.14c-.558,0-.838-.279-.838-1.117V17.87Zm58.916,24.571h10.331V40.347h-.7c-.838,0-1.117-.419-1.117-2.234V21.919h5.445V37.974c0,1.815-.279,2.234-1.117,2.234h-.838V42.3h10.192V40.208h-.838c-.838,0-1.117-.419-1.117-2.234V5.026c0-1.955.14-2.234,1.117-2.234h.838V.7H127.883V2.792h.838c.838,0,1.117.279,1.117,2.234V19.545h-5.584V5.026c0-1.955.279-2.234,1.256-2.234h.7V.7H115.877V2.792h.838c.838,0,1.117.279,1.117,2.234V39.091c0,.838-.279,1.117-1.117,1.117h-.838Zm75.808,0h8.1V40.347H199.5c-.558,0-.558-.14-.558-.838V17.87c0-2.653,0-3.49,1.675-3.49,1.256,0,1.256.419,1.256,2.653V39.37c0,.838-.279.977-.558.977H200.9v2.094h8.656V40.347h-.419c-.558,0-.7-.279-.7-1.117V15.776c0-3.909-.977-5.305-4.747-5.305-2.513,0-3.909.7-4.886,3.071V0l-7.818.7V2.792h.838c.558,0,.838.279.838,1.536V39.091c0,.977-.14,1.256-.838,1.256h-.279v2.094ZM32.11,42.86c6.841,0,7.818-5.724,7.818-16.195s-.977-16.195-7.818-16.195-7.818,5.584-7.818,16.195c0,10.471.977,16.195,7.818,16.195Zm50.818-.419h8.237V40.347h-.419c-.419,0-.419-.14-.419-.838V17.87c0-2.653,0-3.49,1.675-3.49,1.117,0,1.257.419,1.257,2.653V39.37c0,.838-.279.977-.7.977h-.419v2.094H100.8V40.347h-.279c-.558,0-.7-.279-.7-1.117V15.776c0-3.909-.838-5.305-4.747-5.305-2.373,0-3.909.7-4.747,3.071V10.471l-7.958.558v2.094h.838c.419,0,.838.419.838,1.536V39.091c0,.977-.279,1.256-.838,1.256h-.279S82.929,42.442,82.929,42.442ZM157.481,43c2.792,0,3.909-1.4,4.468-3.071.558,2.513,1.117,3.071,4.328,3.071,3.769,0,4.188-2.234,4.188-6.562h-1.815c0,3.211,0,3.49-.7,3.49-.558,0-.558-.279-.558-2.094v-20.8c0-4.188-1.4-6.422-6.282-6.422-3.909,0-7.679,1.117-7.539,5.445.14,1.955.838,3.909,2.932,3.769,1.815-.14,2.653-1.117,2.653-2.653a5.5,5.5,0,0,0-2.094-3.769,5.046,5.046,0,0,1,2.513-.419c1.4,0,1.675,1.117,1.675,3.071v5.864c-7.12,2.373-8.516,3.351-8.516,12.286,0,6.282,1.675,8.8,4.747,8.8Zm-12.146,0c5.305,0,6.562-1.536,6.282-10.331h-2.234c0,6.981-.279,7.4-2.653,7.4-2.932,0-2.932-1.256-2.932-13.123v-.977h8.516c0-12.006-1.4-15.357-6.981-15.357-5.166,0-7.818,3.211-7.818,16.334C137.516,39.51,139.61,43,145.334,43Zm-69.805-.14c5.166,0,6.562-1.536,6.422-10.331H79.718c0,6.981-.279,7.4-2.792,7.4-3.211,0-2.932-1.256-2.932-13.123v-.977h8.237c0-12.006-1.117-15.357-6.7-15.357-5.166,0-7.818,3.211-7.818,16.334,0,12.7,2.094,16.055,7.818,16.055Zm95.354-.419H179.4V40.347h-.7c-.558,0-.7-.279-.7-1.117V0l-7.958.7V2.792h.838c.558,0,.7.279.7,1.117V39.37c0,.838,0,.977-.419.977h-.419v2.094Zm-61.149.419c3.909,0,5.864-2.513,5.864-6.422,0-9.075-8.1-14.24-8.1-20.662,0-1.955.7-2.513,2.094-2.513,2.094,0,2.373.838,2.653,3.909l.279,2.932H114.9V10.75h-1.815c-.14,1.117-.419,1.536-.419,1.4a5.47,5.47,0,0,0-4.328-1.675c-3.351,0-6.422,1.536-6.422,6.562,0,7.958,8.1,13.961,8.1,19.964,0,2.653-.558,3.071-2.513,3.071-1.815,0-2.373-.838-2.653-4.747l-.14-2.653h-2.513v9.773h2.094c.14-1.117.558-1.815.838-1.4.7.7,1.536,1.815,4.607,1.815ZM180.8,35.88c0,5.026.7,6.981,5.724,6.981,3.49,0,4.328-1.4,4.328-5.305V32.25h-2.094v5.584c0,1.815-.14,2.094-.838,2.094s-.838-.279-.838-1.815V13.123h3.909V10.75h-3.909V2.792h-2.234c-1.536,7.12-2.932,7.958-5.026,7.958h-.558v2.373h1.4V35.88ZM32.11,40.068c-1.536,0-1.536-.838-1.536-13.4,0-12.7,0-13.542,1.536-13.542,1.4,0,1.4.838,1.4,13.4,0,12.7,0,13.542-1.4,13.542Zm69.107-27.922c5.305-3.909,6.422-6.981,4.607-9.633C104.987.977,102.753,0,101.218,1.4c-1.955,1.536-1.4,4.328,2.094,6-.7.7-2.094,2.234-3.351,3.351Zm58.916,26.805c-1.257,0-1.257-1.4-1.257-5.584,0-7.679,0-8.656,2.513-10.052V36.438c0,2.094-.279,2.513-1.256,2.513Zm-86.14-15.5c.14-9.912.279-10.471,1.675-10.471s1.256.558,1.256,10.471Zm69.805,0c.14-9.912.279-10.471,1.675-10.471s1.117.558,1.117,10.471Z"
    />
</svg>